<?xml version="1.0" standalone="no"?>
<!DOCTYPE svg PUBLIC "-//W3C//DTD SVG 20010904//EN"
 "http://www.w3.org/TR/2001/REC-SVG-20010904/DTD/svg10.dtd">
<svg version="1.0" xmlns="http://www.w3.org/2000/svg"
 width="512.000000pt" height="512.000000pt" viewBox="0 0 512.000000 512.000000"
 preserveAspectRatio="xMidYMid meet">

<g transform="translate(0.000000,512.000000) scale(0.100000,-0.100000)"
fill="#000000" stroke="none">
<path d="M2140 5111 c-134 -41 -214 -149 -215 -287 0 -63 4 -79 38 -144 29
-56 34 -71 20 -65 -242 100 -563 150 -825 126 -206 -18 -447 -65 -546 -107
-99 -41 -172 -149 -172 -254 0 -32 7 -77 15 -100 35 -98 213 -364 339 -506
l45 -50 -91 -75 c-149 -120 -287 -299 -373 -483 -87 -185 -122 -333 -132 -542
-27 -626 270 -1316 792 -1839 187 -188 469 -405 524 -405 51 0 84 53 65 105
-4 8 -45 43 -93 77 -541 384 -920 909 -1070 1480 -51 196 -65 296 -65 498 -1
143 3 204 17 270 55 256 170 471 348 649 429 429 1085 493 1602 158 l57 -38
-39 -72 c-58 -104 -101 -245 -108 -347 -5 -78 -4 -87 16 -104 12 -11 35 -19
52 -19 47 0 68 29 78 108 16 124 62 248 134 362 21 33 34 42 64 48 21 3 62 18
91 33 l53 27 75 -36 c92 -45 170 -65 306 -80 233 -26 488 40 724 187 39 24 78
44 88 44 9 0 44 -14 76 -30 203 -103 370 -253 497 -447 199 -304 249 -657 158
-1098 -155 -744 -707 -1431 -1454 -1804 -234 -118 -353 -161 -506 -186 -224
-37 -419 -5 -682 111 -67 30 -133 54 -146 54 -30 0 -67 -39 -67 -71 0 -43 27
-65 137 -114 224 -98 414 -145 593 -145 260 0 562 104 923 317 629 371 1101
957 1300 1614 103 337 124 714 55 978 -94 364 -331 687 -633 863 -132 78 -126
60 -45 135 116 107 220 230 220 259 0 33 -42 74 -76 74 -22 0 -49 -22 -132
-110 -336 -354 -713 -527 -1043 -481 -215 30 -377 129 -446 269 -40 83 -44
208 -10 315 62 193 227 376 432 480 197 98 512 157 769 142 200 -11 502 -71
563 -111 31 -20 53 -55 59 -96 5 -26 -3 -50 -35 -111 -48 -92 -52 -127 -15
-156 58 -46 95 -22 158 105 48 97 54 178 17 259 -47 105 -112 147 -301 194
-395 97 -768 90 -1100 -20 -194 -64 -329 -147 -463 -282 -49 -49 -90 -87 -91
-85 -2 2 -11 26 -21 53 -33 89 -131 291 -177 361 -24 38 -63 82 -85 97 -71 49
-173 69 -243 48z m153 -167 c53 -40 163 -257 232 -457 l37 -107 -28 -87 c-26
-78 -29 -102 -29 -213 1 -105 4 -134 23 -180 19 -48 58 -116 97 -166 13 -18 3
-25 -44 -31 -47 -6 -110 14 -154 49 -24 20 -30 35 -41 114 -50 334 -126 573
-266 839 -57 109 -62 151 -23 204 44 60 139 77 196 35z m-808 -359 c218 -24
414 -84 558 -170 l65 -40 36 -115 c39 -124 89 -351 84 -380 -3 -15 -11 -14
-88 14 -78 29 -85 34 -87 61 -1 15 -10 36 -20 46 -21 20 -787 339 -815 339
-27 0 -68 -45 -68 -75 0 -14 10 -36 23 -48 12 -12 136 -70 276 -127 l254 -105
-119 -6 c-193 -10 -357 -51 -527 -131 l-88 -42 -50 54 c-166 183 -329 438
-329 515 0 86 40 115 216 159 234 59 459 76 679 51z"/>
<path d="M3455 4341 c-209 -87 -390 -167 -402 -179 -45 -42 -13 -122 47 -122
33 0 779 308 808 333 46 42 14 128 -47 126 -14 0 -197 -71 -406 -158z"/>
<path d="M1820 2490 c-17 -17 -20 -33 -20 -110 0 -77 3 -93 20 -110 25 -25 71
-26 101 -1 22 18 24 27 24 111 0 84 -2 93 -24 111 -30 25 -76 24 -101 -1z"/>
<path d="M3199 2491 c-22 -18 -24 -27 -24 -111 0 -84 2 -93 24 -111 30 -25 76
-24 101 1 17 17 20 33 20 110 0 77 -3 93 -20 110 -25 25 -71 26 -101 1z"/>
<path d="M2332 2466 l-37 -34 0 -139 c0 -159 10 -188 87 -260 53 -48 103 -67
178 -67 75 0 125 19 178 67 72 67 86 103 90 240 5 131 -3 163 -50 202 -29 25
-32 25 -219 25 l-189 0 -38 -34z m348 -190 c0 -90 -24 -133 -85 -155 -35 -12
-45 -11 -77 2 -56 24 -78 67 -78 155 l0 72 120 0 120 0 0 -74z"/>
</g>
</svg>
